<svg xmlns="http://www.w3.org/2000/svg" viewBox="-0.47 0 302.8 109.43">
 <title>right_handed</title>

 <g>
  <title>Layer 1</title>
  <path transform="rotate(180 44.029 53.7725)" fill="#fff" stroke="#000000" d="m40.02844,79.11796l13.95226,-15.65454l-26.97601,0l-26.97595,0l0,-9.6909l0,-9.69091l26.66649,0c14.66655,0 26.66647,-0.49118 26.66647,-1.09152c0,-0.60032 -5.83871,-7.64487 -12.97489,-15.65454l-12.97493,-14.56304l11.9928,0l11.99275,0l18.31565,20.51964l18.31564,20.51963l-18.35078,20.48037l-18.35077,20.48037l-12.6255,0l-12.62553,0l13.9523,-15.65455l0.00001,0l-0.00001,-0.00001z" id="svg_1"/>
  <path fill="#fff" stroke="#000000" d="m135.47115,79.11796l13.95226,-15.65454l-26.97602,0l-26.97595,0l0,-9.6909l0,-9.69091l26.66649,0c14.66654,0 26.66646,-0.49118 26.66646,-1.09152c0,-0.60032 -5.83871,-7.64487 -12.97489,-15.65454l-12.97493,-14.56304l11.9928,0l11.99276,0l18.31565,20.51964l18.31564,20.51963l-18.35077,20.48036l-18.35078,20.48037l-12.6255,0l-12.62553,0l13.9523,-15.65455l0.00001,0z" id="svg_7"/>
  <g stroke="null" id="svg_2">
   <path stroke="null" id="svg_3" d="m196.09258,57.9541l9.13399,0c1.57499,20.87785 18.31331,37.66111 39.14621,39.2361l0,8.99896c0,1.79991 1.39483,3.23968 3.19454,3.23968c1.84485,0 3.23968,-1.43977 3.23968,-3.23968l0,-8.99896c20.8329,-1.57499 37.57161,-18.35825 39.14562,-39.2361l9.13477,0c1.79971,0 3.23909,-1.43997 3.23909,-3.23968c0,-1.79971 -1.43938,-3.19474 -3.23909,-3.19474l-9.13477,0c-1.57402,-20.87785 -18.31272,-37.66111 -39.14562,-39.2359l0,-9.0441c0,-1.79991 -1.39483,-3.23968 -3.23968,-3.23968c-1.79971,0 -3.19454,1.43977 -3.19454,3.23964l0,9.04414c-20.8329,1.5748 -37.57122,18.35805 -39.14621,39.2359l-9.13399,0c-1.79971,0 -2.99933,1.39502 -2.99933,3.19474c0,1.79971 1.19961,3.23968 2.99933,3.23968zm51.47474,-21.01288c1.84485,0 3.23968,-1.43977 3.23968,-3.23968l0,-14.08349c16.91828,1.52985 30.05678,14.80338 31.54227,31.90163l-13.72394,0c-1.79991,0 -3.23988,1.39502 -3.23988,3.19474c0,1.79971 1.43997,3.23968 3.23988,3.23968l13.72394,0c-1.4855,17.05331 -14.62399,30.32683 -31.54227,31.85669l0,-14.08349c0,-1.79991 -1.39483,-3.19454 -3.23968,-3.19454c-1.79971,0 -3.19454,1.39463 -3.19454,3.19454l0,14.08349c-16.91848,-1.52985 -30.05697,-14.80338 -31.54188,-31.85669l13.72374,0c1.79971,0 3.23948,-1.43997 3.23948,-3.23968c0,-1.79971 -1.43977,-3.19474 -3.23948,-3.19474l-13.72374,0c1.48491,-17.09826 14.6234,-30.37178 31.54188,-31.90163l0,14.08349c0,1.79991 1.39483,3.23968 3.19454,3.23968z"/>
  </g>
 </g>
</svg>